<?xml version="1.0" encoding="UTF-8"?>
<svg id="_图层_1" data-name="图层 1" xmlns="http://www.w3.org/2000/svg" viewBox="0 0 513.28 512.52">
  <defs>
    <style>
      .cls-1 {
        fill: #fff;
      }

      .cls-2 {
        fill: none;
        stroke: #fff;
        stroke-miterlimit: 10;
        stroke-width: 5px;
      }
    </style>
  </defs>
  <g>
    <polygon class="cls-1" points="416.17 435.89 416.17 468.22 416.17 500.55 387.95 484.39 359.74 468.22 387.95 452.06 416.17 435.89"/>
    <polygon class="cls-1" points="510.59 496.53 478.01 496.53 445.44 496.53 461.72 468.53 478.01 440.53 494.3 468.53 510.59 496.53"/>
    <polygon class="cls-1" points="298.44 432.22 307.51 459.91 336.84 459.91 313.11 477.03 322.17 504.72 298.44 487.61 274.71 504.72 283.77 477.03 260.04 459.91 289.37 459.91 298.44 432.22"/>
    <rect class="cls-2" x="265.89" y="349.53" width="65.1" height="64.61"/>
    <polygon class="cls-2" points="423.22 381.84 387.72 417.07 352.23 381.84 387.72 346.61 423.22 381.84"/>
    <polygon class="cls-2" points="423.22 381.84 387.72 417.07 352.23 381.84 387.72 346.61 423.22 381.84"/>
    <polygon class="cls-1" points="513.28 381.84 477.78 417.07 442.29 381.84 477.78 346.61 513.28 381.84"/>
    <polygon class="cls-1" points="513.28 381.84 477.78 417.07 442.29 381.84 477.78 346.61 513.28 381.84"/>
    <path class="cls-1" d="M298.17,258c-19.03,0-34.45,15.31-34.45,34.19s15.42,34.19,34.45,34.19,34.45-15.31,34.45-34.19-15.42-34.19-34.45-34.19Zm0,63.25c-16.17,0-29.28-13.01-29.28-29.06s13.11-29.06,29.28-29.06,29.28,13.01,29.28,29.06-13.11,29.06-29.28,29.06Z"/>
    <path class="cls-1" d="M417.5,291.92c0,.09,0,.18,0,.27,0,16.05-13.11,29.06-29.28,29.06s-29.28-13.01-29.28-29.06,12.96-28.91,29.01-29.06v-5.13c-18.9,.15-34.18,15.39-34.18,34.18s15.42,34.19,34.45,34.19,34.45-15.31,34.45-34.19c0-.09,0-.18,0-.27h-5.17Z"/>
    <path class="cls-1" d="M507.57,292.19c0,16.05-13.11,29.06-29.28,29.06-.09,0-.18,0-.27,0v5.13c.09,0,.18,0,.27,0,19.03,0,34.45-15.31,34.45-34.19,0-.09,0-.18,0-.27h-5.17c0,.09,0,.18,0,.27Z"/>
  </g>
  <g>
    <path class="cls-1" d="M411.83,183.16c2.39-1.37,4.34-.24,4.34,2.51v22.33c0,2.75,0,7.25,0,10v22.33c0,2.75-1.95,3.88-4.34,2.51l-19.53-11.19-8.68-4.97-19.53-11.19c-2.39-1.37-2.39-3.6,0-4.97l19.53-11.19,8.68-4.97,19.53-11.19Z"/>
    <path class="cls-1" d="M508.07,236.87c1.38,2.38,.26,4.32-2.49,4.32h-22.58c-2.75,0-7.25,0-10,0h-22.58c-2.75,0-3.87-1.94-2.49-4.32l11.26-19.36c1.38-2.38,3.65-6.27,5.03-8.64l11.26-19.36c1.38-2.38,3.65-2.38,5.03,0l11.26,19.36,5.03,8.64,11.26,19.36Z"/>
    <path class="cls-1" d="M297.23,182.45c.49-.99,1.28-.99,1.77,0l8.72,17.66c.49,.99,1.78,1.92,2.86,2.08l19.49,2.83c1.09,.16,1.33,.92,.55,1.68l-14.1,13.75c-.79,.77-1.28,2.28-1.09,3.37l3.33,19.41c.19,1.08-.46,1.55-1.43,1.04l-17.43-9.17c-.97-.51-2.57-.51-3.54,0l-17.43,9.17c-.97,.51-1.62,.04-1.43-1.04l3.33-19.41c.19-1.08-.31-2.6-1.09-3.37l-14.1-13.75c-.79-.77-.54-1.53,.55-1.68l19.49-2.83c1.09-.16,2.38-1.09,2.86-2.08l8.72-17.66Z"/>
    <rect class="cls-2" x="354.32" y="94.32" width="65.1" height="64.61" rx="5" ry="5" transform="translate(23.78 310.65) rotate(-45)"/>
    <rect class="cls-1" x="451.92" y="105.33" width="50.93" height="50.55" rx="5" ry="5" transform="translate(232.17 -299.31) rotate(45)"/>
    <rect class="cls-2" x="265.89" y="94.32" width="65.1" height="64.61" rx="5" ry="5"/>
    <path class="cls-1" d="M298.12,2.02c-18.87,0-34.17,15.3-34.17,34.17s15.3,34.17,34.17,34.17V2.02Z"/>
    <path class="cls-1" d="M388.56,4.03c-18.87,0-34.17,15.3-34.17,34.17s15.3,34.17,34.17,34.17,34.17-15.3,34.17-34.17h-34.17V4.03Z"/>
    <path class="cls-1" d="M479,36.19h34.17c0-18.87-15.3-34.17-34.17-34.17V36.19Z"/>
  </g>
  <g>
    <rect class="cls-1" y="201.25" width="79.68" height="12.26"/>
    <rect class="cls-1" x="0" y="201.25" width="79.68" height="12.26" transform="translate(-167.54 247.23) rotate(-90)"/>
    <rect class="cls-1" x="89.9" y="201.25" width="79.68" height="12.26" transform="translate(-108.64 152.48) rotate(-45)"/>
    <rect class="cls-1" x="89.9" y="201.25" width="79.68" height="12.26" transform="translate(74.84 445.77) rotate(-135)"/>
    <rect class="cls-1" x="184.91" y="201.25" width="79.68" height="12.26" transform="translate(-80.81 219.66) rotate(-45)"/>
    <rect class="cls-1" x="173.37" y="216.36" width="36.95" height="12.26" transform="translate(170.17 515.47) rotate(-135)"/>
    <rect class="cls-1" x="92.97" y="123.61" width="76.62" height="14.3"/>
    <rect class="cls-1" x="175.71" y="62.32" width="76.62" height="14.3"/>
    <rect class="cls-1" x="175.71" y="31.67" width="76.62" height="14.3"/>
    <rect class="cls-1" x="175.71" y="1.02" width="76.62" height="14.3"/>
    <rect class="cls-1" x="175.71" y="122.59" width="70.49" height="14.3"/>
    <rect class="cls-1" x="213.56" y="113.06" width="42.81" height="14.98" transform="translate(154.06 -130.84) rotate(45)"/>
    <rect class="cls-1" x="213.56" y="132.47" width="42.81" height="14.98" transform="translate(-30.15 207.14) rotate(-45)"/>
    <circle class="cls-1" cx="38.31" cy="38.31" r="38.31"/>
    <rect class="cls-1" x="92.97" width="76.62" height="76.62"/>
    <circle class="cls-1" cx="11.24" cy="130.76" r="11.24"/>
    <circle class="cls-1" cx="68.45" cy="130.76" r="11.24"/>
    <circle class="cls-1" cx="39.84" cy="130.76" r="11.24"/>
  </g>
  <g>
    <rect class="cls-1" x="2.01" y="466.55" width="79.68" height="12.26" rx="3.05" ry="3.05"/>
    <rect class="cls-1" x="2.01" y="466.55" width="79.68" height="12.26" rx="3.05" ry="3.05" transform="translate(-430.83 514.53) rotate(-90)"/>
    <rect class="cls-1" x="91.91" y="466.55" width="79.68" height="12.26" rx="3.05" ry="3.05" transform="translate(-295.65 231.61) rotate(-45)"/>
    <rect class="cls-1" x="91.91" y="466.55" width="79.68" height="12.26" rx="3.05" ry="3.05" transform="translate(-109.32 900.08) rotate(-135)"/>
    <rect class="cls-1" x="186.92" y="466.55" width="79.68" height="12.26" rx="3.05" ry="3.05" transform="translate(-267.82 298.79) rotate(-45)"/>
    <rect class="cls-1" x="175.38" y="481.66" width="36.95" height="12.26" rx="3.05" ry="3.05" transform="translate(-13.99 969.79) rotate(-135)"/>
    <rect class="cls-1" x="94.98" y="388.91" width="76.62" height="14.3" rx="3.56" ry="3.56"/>
    <rect class="cls-1" x="177.72" y="327.62" width="76.62" height="14.3" rx="3.56" ry="3.56"/>
    <rect class="cls-1" x="177.72" y="296.97" width="76.62" height="14.3" rx="3.56" ry="3.56"/>
    <rect class="cls-1" x="177.72" y="266.32" width="76.62" height="14.3" rx="3.56" ry="3.56"/>
    <rect class="cls-1" x="177.72" y="387.89" width="70.49" height="14.3" rx="3.56" ry="3.56"/>
    <rect class="cls-1" x="215.57" y="378.36" width="42.81" height="14.98" rx="3.73" ry="3.73" transform="translate(342.24 -54.56) rotate(45)"/>
    <rect class="cls-1" x="215.57" y="397.77" width="42.81" height="14.98" rx="3.73" ry="3.73" transform="translate(-217.15 286.27) rotate(-45)"/>
    <path class="cls-1" d="M40.32,265.3c-21.16,0-38.31,17.15-38.31,38.31s17.15,38.31,38.31,38.31,38.31-17.15,38.31-38.31-17.15-38.31-38.31-38.31Zm0,48.24c-5.49,0-9.93-4.45-9.93-9.93s4.45-9.93,9.93-9.93,9.93,4.45,9.93,9.93-4.45,9.93-9.93,9.93Z"/>
    <rect class="cls-1" x="94.98" y="265.3" width="76.62" height="76.62" rx="5" ry="5"/>
    <circle class="cls-1" cx="41.85" cy="416.63" r="11.24"/>
    <circle class="cls-1" cx="41.85" cy="359.42" r="11.24"/>
    <circle class="cls-1" cx="41.85" cy="388.02" r="11.24"/>
  </g>
</svg>